<svg width="532" height="120" viewBox="0 0 532 120" fill="none" xmlns="http://www.w3.org/2000/svg">
<path d="M65.8346 107.143C59.5489 107.143 54.0338 105.647 49.2893 102.655C44.575 99.6637 40.8882 95.4783 38.2288 90.0992C35.5997 84.7201 34.2852 78.4343 34.2852 71.242C34.2852 63.9893 35.5997 57.6582 38.2288 52.2489C40.8882 46.8396 44.575 42.639 49.2893 39.6473C54.0338 36.6555 59.5489 35.1596 65.8346 35.1596C72.1203 35.1596 77.6203 36.6555 82.3346 39.6473C87.0791 42.639 90.7659 46.8396 93.395 52.2489C96.0544 57.6582 97.3841 63.9893 97.3841 71.242C97.3841 78.4343 96.0544 84.7201 93.395 90.0992C90.7659 95.4783 87.0791 99.6637 82.3346 102.655C77.6203 105.647 72.1203 107.143 65.8346 107.143ZM65.8346 97.5332C70.6093 97.5332 74.5379 96.3093 77.6203 93.8615C80.7027 91.4137 82.9843 88.1953 84.4651 84.2063C85.9459 80.2173 86.6863 75.8959 86.6863 71.242C86.6863 66.5882 85.9459 62.2516 84.4651 58.2324C82.9843 54.2132 80.7027 50.9646 77.6203 48.4865C74.5379 46.0085 70.6093 44.7695 65.8346 44.7695C61.0599 44.7695 57.1313 46.0085 54.0489 48.4865C50.9665 50.9646 48.6849 54.2132 47.2041 58.2324C45.7233 62.2516 44.983 66.5882 44.983 71.242C44.983 75.8959 45.7233 80.2173 47.2041 84.2063C48.6849 88.1953 50.9665 91.4137 54.0489 93.8615C57.1313 96.3093 61.0599 97.5332 65.8346 97.5332Z" fill="white"/>
<path d="M163.033 51.6596L153.423 54.3794C152.818 52.7777 151.927 51.2214 150.748 49.7104C149.6 48.1692 148.029 46.9 146.034 45.9027C144.04 44.9055 141.486 44.4069 138.373 44.4069C134.112 44.4069 130.562 45.389 127.721 47.3533C124.91 49.2874 123.505 51.7503 123.505 54.742C123.505 57.4014 124.472 59.5017 126.406 61.0429C128.34 62.5841 131.362 63.8684 135.472 64.8959L145.807 67.4343C152.033 68.9453 156.671 71.2571 159.724 74.3698C162.776 77.4522 164.302 81.4261 164.302 86.2915C164.302 90.2805 163.154 93.8464 160.857 96.9893C158.59 100.132 155.417 102.61 151.338 104.423C147.258 106.237 142.514 107.143 137.104 107.143C130.003 107.143 124.125 105.602 119.471 102.52C114.817 99.4371 111.871 94.9343 110.632 89.0113L120.785 86.4728C121.753 90.2201 123.581 93.0305 126.27 94.9041C128.99 96.7777 132.541 97.7146 136.923 97.7146C141.909 97.7146 145.868 96.6569 148.799 94.5415C151.761 92.3959 153.242 89.8272 153.242 86.8354C153.242 84.4179 152.395 82.3931 150.703 80.7613C149.011 79.0992 146.412 77.8602 142.906 77.0442L131.302 74.3245C124.926 72.8135 120.242 70.4714 117.25 67.2984C114.288 64.0951 112.807 60.0909 112.807 55.286C112.807 51.3574 113.91 47.8821 116.117 44.8602C118.353 41.8382 121.39 39.4659 125.228 37.7434C129.096 36.0209 133.478 35.1596 138.373 35.1596C145.264 35.1596 150.673 36.6706 154.601 39.6926C158.56 42.7146 161.371 46.7036 163.033 51.6596Z" fill="white"/>
<path d="M241.238 36.0662L216.442 105.693H198.311L173.515 36.0662H191.012L207.014 87.7874H207.739L223.786 36.0662H241.238Z" fill="white"/>
<path d="M270.634 107.098C266.222 107.098 262.248 106.312 258.712 104.741C255.207 103.139 252.427 100.782 250.372 97.6692C248.347 94.5566 247.335 90.7187 247.335 86.1555C247.335 82.2269 248.06 78.9783 249.51 76.4096C250.961 73.8409 252.94 71.786 255.449 70.2448C257.957 68.7036 260.782 67.5401 263.925 66.7544C267.098 65.9385 270.377 65.3492 273.762 64.9865C277.841 64.5635 281.151 64.1857 283.689 63.8533C286.227 63.4907 288.071 62.9467 289.219 62.2214C290.398 61.4659 290.987 60.3025 290.987 58.731V58.4591C290.987 55.0442 289.975 52.4 287.95 50.5264C285.925 48.6527 283.009 47.7159 279.201 47.7159C275.182 47.7159 271.994 48.5923 269.637 50.3451C267.31 52.0978 265.738 54.1679 264.922 56.5552L249.601 54.3794C250.81 50.1486 252.804 46.6129 255.585 43.7723C258.365 40.9014 261.765 38.7558 265.784 37.3354C269.803 35.8849 274.245 35.1596 279.111 35.1596C282.465 35.1596 285.804 35.5525 289.129 36.3382C292.453 37.1239 295.49 38.4234 298.24 40.2365C300.99 42.0195 303.196 44.4522 304.858 47.5346C306.55 50.617 307.396 54.4701 307.396 59.0937V105.693H291.622V96.128H291.078C290.08 98.0621 288.675 99.8753 286.862 101.568C285.079 103.23 282.828 104.574 280.108 105.602C277.418 106.599 274.26 107.098 270.634 107.098ZM274.895 95.0401C278.189 95.0401 281.045 94.3904 283.462 93.0909C285.88 91.7613 287.738 90.0085 289.038 87.8327C290.368 85.6569 291.032 83.2846 291.032 80.7159V72.5113C290.519 72.9343 289.642 73.3272 288.403 73.6898C287.194 74.0525 285.835 74.3698 284.324 74.6418C282.813 74.9137 281.317 75.1555 279.836 75.367C278.355 75.5786 277.071 75.7599 275.983 75.911C273.535 76.2434 271.344 76.7874 269.41 77.5429C267.476 78.2983 265.95 79.356 264.832 80.7159C263.714 82.0456 263.155 83.7681 263.155 85.8835C263.155 88.9055 264.258 91.1871 266.464 92.7283C268.67 94.2695 271.48 95.0401 274.895 95.0401Z" fill="white"/>
<path d="M368.274 76.4096V36.0662H384.683V105.693H368.773V93.3176H368.047C366.476 97.2159 363.892 100.404 360.296 102.882C356.73 105.36 352.333 106.599 347.105 106.599C342.542 106.599 338.508 105.587 335.002 103.562C331.527 101.507 328.807 98.5305 326.843 94.6321C324.879 90.7036 323.896 85.9591 323.896 80.3986V36.0662H340.306V77.8602C340.306 82.2722 341.515 85.7777 343.932 88.3766C346.35 90.9755 349.523 92.275 353.451 92.275C355.869 92.275 358.211 91.6857 360.477 90.5071C362.744 89.3286 364.602 87.5758 366.053 85.2489C367.534 82.8918 368.274 79.9453 368.274 76.4096Z" fill="white"/>
<path d="M417.967 12.8574V105.693H401.557V12.8574H417.967Z" fill="white"/>
<path d="M460.679 106.916C455.209 106.916 450.313 105.511 445.992 102.701C441.67 99.8904 438.256 95.8107 435.747 90.4618C433.239 85.1129 431.985 78.6157 431.985 70.9701C431.985 63.2338 433.254 56.7063 435.793 51.3876C438.361 46.0387 441.822 42.0044 446.173 39.2846C450.525 36.5346 455.375 35.1596 460.724 35.1596C464.804 35.1596 468.158 35.8547 470.787 37.2448C473.416 38.6047 475.501 40.2517 477.043 42.1857C478.584 44.0896 479.778 45.8876 480.624 47.5799H481.304V12.8574H497.758V105.693H481.621V94.7228H480.624C479.778 96.4151 478.554 98.2132 476.952 100.117C475.35 101.991 473.235 103.592 470.606 104.922C467.977 106.252 464.668 106.916 460.679 106.916ZM465.257 93.4536C468.732 93.4536 471.694 92.5168 474.142 90.6431C476.589 88.7393 478.448 86.0951 479.717 82.7104C480.986 79.3258 481.621 75.3821 481.621 70.8794C481.621 66.3766 480.986 62.4632 479.717 59.139C478.478 55.8148 476.635 53.231 474.187 51.3876C471.769 49.5442 468.793 48.6225 465.257 48.6225C461.6 48.6225 458.548 49.5745 456.1 51.4783C453.653 53.3821 451.809 56.0113 450.57 59.3657C449.331 62.7201 448.712 66.558 448.712 70.8794C448.712 75.231 449.331 79.1143 450.57 82.5291C451.839 85.9137 453.698 88.5882 456.146 90.5525C458.624 92.4865 461.661 93.4536 465.257 93.4536Z" fill="white"/>
</svg>
