<svg width="769" height="136" viewBox="0 0 769 136" fill="none" xmlns="http://www.w3.org/2000/svg">
<path d="M197.756 68.74C197.673 66.3427 197.177 64.276 196.268 62.54C195.359 60.7213 194.119 59.2333 192.548 58.076C191.06 56.9187 189.324 56.092 187.34 55.596C185.356 55.0173 183.248 54.728 181.016 54.728C179.28 54.728 177.503 54.9347 175.684 55.348C173.948 55.6787 172.336 56.2987 170.848 57.208C169.36 58.0347 168.161 59.1507 167.252 60.556C166.343 61.9613 165.888 63.6973 165.888 65.764C165.888 67.5 166.301 68.988 167.128 70.228C168.037 71.3853 169.153 72.3773 170.476 73.204C171.799 74.0307 173.245 74.7333 174.816 75.312C176.387 75.808 177.833 76.2213 179.156 76.552L189.572 78.908C191.804 79.2387 193.995 79.8587 196.144 80.768C198.376 81.5947 200.319 82.7107 201.972 84.116C203.708 85.5213 205.113 87.2573 206.188 89.324C207.263 91.3907 207.8 93.8293 207.8 96.64C207.8 100.112 207.015 103.088 205.444 105.568C203.873 107.965 201.848 109.949 199.368 111.52C196.971 113.008 194.243 114.083 191.184 114.744C188.125 115.405 185.108 115.736 182.132 115.736C174.609 115.736 168.492 113.959 163.78 110.404C159.151 106.849 156.505 101.145 155.844 93.292H163.656C163.987 98.5827 165.888 102.592 169.36 105.32C172.915 107.965 177.296 109.288 182.504 109.288C184.405 109.288 186.348 109.081 188.332 108.668C190.399 108.255 192.3 107.552 194.036 106.56C195.772 105.568 197.177 104.328 198.252 102.84C199.409 101.269 199.988 99.368 199.988 97.136C199.988 95.2347 199.575 93.664 198.748 92.424C198.004 91.1013 196.971 90.0267 195.648 89.2C194.325 88.2907 192.796 87.5467 191.06 86.968C189.407 86.3893 187.712 85.8933 185.976 85.48L175.932 83.248C173.369 82.5867 171.013 81.8427 168.864 81.016C166.715 80.1067 164.813 79.032 163.16 77.792C161.589 76.4693 160.349 74.8987 159.44 73.08C158.531 71.1787 158.076 68.864 158.076 66.136C158.076 62.912 158.779 60.1427 160.184 57.828C161.672 55.5133 163.573 53.6533 165.888 52.248C168.203 50.8427 170.765 49.8093 173.576 49.148C176.469 48.4867 179.321 48.156 182.132 48.156C185.356 48.156 188.332 48.5693 191.06 49.396C193.871 50.2227 196.309 51.504 198.376 53.24C200.525 54.976 202.22 57.1253 203.46 59.688C204.7 62.2507 205.403 65.268 205.568 68.74H197.756ZM214.055 25.464H221.867V61.052H222.115C223.603 57.1667 226.249 54.0667 230.051 51.752C233.854 49.3547 238.029 48.156 242.575 48.156C247.039 48.156 250.759 48.7347 253.735 49.892C256.794 51.0493 259.233 52.7027 261.051 54.852C262.87 56.9187 264.151 59.4813 264.895 62.54C265.639 65.5987 266.011 69.0293 266.011 72.832V114H258.199V74.072C258.199 71.344 257.951 68.8227 257.455 66.508C256.959 64.1107 256.091 62.044 254.851 60.308C253.611 58.572 251.917 57.208 249.767 56.216C247.701 55.224 245.097 54.728 241.955 54.728C238.814 54.728 236.003 55.3067 233.523 56.464C231.126 57.5387 229.059 59.068 227.323 61.052C225.67 62.9533 224.347 65.268 223.355 67.996C222.446 70.6413 221.95 73.5347 221.867 76.676V114H214.055V25.464ZM275.077 69.608C275.325 65.888 276.11 62.664 277.433 59.936C278.755 57.208 280.533 54.976 282.765 53.24C285.079 51.504 287.766 50.2227 290.825 49.396C293.883 48.5693 297.273 48.156 300.993 48.156C303.803 48.156 306.614 48.4453 309.425 49.024C312.235 49.52 314.757 50.512 316.989 52C319.221 53.488 321.039 55.596 322.445 58.324C323.85 60.9693 324.553 64.4413 324.553 68.74V102.716C324.553 105.857 326.082 107.428 329.141 107.428C330.05 107.428 330.877 107.263 331.621 106.932V113.504C330.711 113.669 329.885 113.793 329.141 113.876C328.479 113.959 327.611 114 326.537 114C324.553 114 322.941 113.752 321.701 113.256C320.543 112.677 319.634 111.892 318.973 110.9C318.311 109.908 317.857 108.751 317.609 107.428C317.443 106.023 317.361 104.493 317.361 102.84H317.113C315.707 104.907 314.261 106.767 312.773 108.42C311.367 109.991 309.755 111.313 307.937 112.388C306.201 113.463 304.175 114.289 301.861 114.868C299.629 115.447 296.942 115.736 293.801 115.736C290.825 115.736 288.014 115.364 285.369 114.62C282.806 113.959 280.533 112.884 278.549 111.396C276.647 109.825 275.118 107.883 273.961 105.568C272.886 103.171 272.349 100.36 272.349 97.136C272.349 92.672 273.341 89.2 275.325 86.72C277.309 84.1573 279.913 82.2147 283.137 80.892C286.443 79.5693 290.122 78.66 294.173 78.164C298.306 77.5853 302.481 77.048 306.697 76.552C308.35 76.3867 309.797 76.18 311.037 75.932C312.277 75.684 313.31 75.2707 314.137 74.692C314.963 74.0307 315.583 73.1627 315.997 72.088C316.493 71.0133 316.741 69.608 316.741 67.872C316.741 65.2267 316.286 63.0773 315.377 61.424C314.55 59.688 313.351 58.324 311.781 57.332C310.293 56.34 308.515 55.6787 306.449 55.348C304.465 54.9347 302.315 54.728 300.001 54.728C295.041 54.728 290.99 55.9267 287.849 58.324C284.707 60.6387 283.054 64.4 282.889 69.608H275.077ZM316.741 79.032H316.493C315.997 79.9413 315.046 80.6027 313.641 81.016C312.235 81.4293 310.995 81.7187 309.921 81.884C306.614 82.4627 303.183 83 299.629 83.496C296.157 83.9093 292.974 84.5707 290.081 85.48C287.187 86.3893 284.79 87.712 282.889 89.448C281.07 91.1013 280.161 93.4987 280.161 96.64C280.161 98.624 280.533 100.401 281.277 101.972C282.103 103.46 283.178 104.783 284.501 105.94C285.823 107.015 287.353 107.841 289.089 108.42C290.825 108.999 292.602 109.288 294.421 109.288C297.397 109.288 300.249 108.833 302.977 107.924C305.705 107.015 308.061 105.692 310.045 103.956C312.111 102.22 313.723 100.112 314.881 97.632C316.121 95.152 316.741 92.3413 316.741 89.2V79.032ZM391.458 114H384.266V101.848H384.018C383.191 103.915 381.951 105.816 380.298 107.552C378.727 109.288 376.908 110.776 374.842 112.016C372.775 113.173 370.543 114.083 368.146 114.744C365.831 115.405 363.516 115.736 361.202 115.736C356.324 115.736 352.067 114.868 348.43 113.132C344.875 111.313 341.899 108.875 339.502 105.816C337.104 102.675 335.327 99.0787 334.17 95.028C333.012 90.8947 332.434 86.5547 332.434 82.008C332.434 77.4613 333.012 73.1627 334.17 69.112C335.327 64.9787 337.104 61.3827 339.502 58.324C341.899 55.1827 344.875 52.7027 348.43 50.884C352.067 49.0653 356.324 48.156 361.202 48.156C363.599 48.156 365.914 48.4453 368.146 49.024C370.46 49.6027 372.61 50.512 374.594 51.752C376.578 52.9093 378.314 54.356 379.802 56.092C381.372 57.828 382.571 59.8533 383.398 62.168H383.646V25.464H391.458V114ZM340.246 82.008C340.246 85.3147 340.618 88.6213 341.362 91.928C342.188 95.152 343.428 98.0453 345.082 100.608C346.818 103.171 349.008 105.279 351.654 106.932C354.299 108.503 357.482 109.288 361.202 109.288C365.335 109.288 368.807 108.503 371.618 106.932C374.511 105.279 376.826 103.171 378.562 100.608C380.38 98.0453 381.662 95.152 382.406 91.928C383.232 88.6213 383.646 85.3147 383.646 82.008C383.646 78.7013 383.232 75.436 382.406 72.212C381.662 68.9053 380.38 65.9707 378.562 63.408C376.826 60.8453 374.511 58.7787 371.618 57.208C368.807 55.5547 365.335 54.728 361.202 54.728C357.482 54.728 354.299 55.5547 351.654 57.208C349.008 58.7787 346.818 60.8453 345.082 63.408C343.428 65.9707 342.188 68.9053 341.362 72.212C340.618 75.436 340.246 78.7013 340.246 82.008ZM428.437 54.728C424.717 54.728 421.451 55.5133 418.641 57.084C415.83 58.6547 413.474 60.7213 411.573 63.284C409.754 65.8467 408.349 68.7813 407.357 72.088C406.447 75.312 405.993 78.6187 405.993 82.008C405.993 85.3973 406.447 88.7453 407.357 92.052C408.349 95.276 409.754 98.1693 411.573 100.732C413.474 103.295 415.83 105.361 418.641 106.932C421.451 108.503 424.717 109.288 428.437 109.288C432.157 109.288 435.422 108.503 438.233 106.932C441.043 105.361 443.358 103.295 445.177 100.732C447.078 98.1693 448.483 95.276 449.393 92.052C450.385 88.7453 450.881 85.3973 450.881 82.008C450.881 78.6187 450.385 75.312 449.393 72.088C448.483 68.7813 447.078 65.8467 445.177 63.284C443.358 60.7213 441.043 58.6547 438.233 57.084C435.422 55.5133 432.157 54.728 428.437 54.728ZM428.437 48.156C433.314 48.156 437.613 49.0653 441.333 50.884C445.135 52.7027 448.318 55.1413 450.881 58.2C453.443 61.2587 455.386 64.8547 456.709 68.988C458.031 73.0387 458.693 77.3787 458.693 82.008C458.693 86.6373 458.031 91.0187 456.709 95.152C455.386 99.2027 453.443 102.757 450.881 105.816C448.318 108.875 445.135 111.313 441.333 113.132C437.613 114.868 433.314 115.736 428.437 115.736C423.559 115.736 419.219 114.868 415.417 113.132C411.697 111.313 408.555 108.875 405.993 105.816C403.43 102.757 401.487 99.2027 400.165 95.152C398.842 91.0187 398.181 86.6373 398.181 82.008C398.181 77.3787 398.842 73.0387 400.165 68.988C401.487 64.8547 403.43 61.2587 405.993 58.2C408.555 55.1413 411.697 52.7027 415.417 50.884C419.219 49.0653 423.559 48.156 428.437 48.156ZM458.899 50.016H467.207L483.575 104.824H483.823L499.447 50.016H508.251L523.875 104.824H524.123L540.491 50.016H548.799L528.215 114H519.659L503.911 60.184H503.663L488.039 114H479.483L458.899 50.016ZM562.961 93.416C563.375 97.5493 564.945 100.443 567.673 102.096C570.401 103.749 573.667 104.576 577.469 104.576C578.792 104.576 580.28 104.493 581.933 104.328C583.669 104.08 585.281 103.667 586.769 103.088C588.257 102.509 589.456 101.683 590.365 100.608C591.357 99.4507 591.812 97.9627 591.729 96.144C591.647 94.3253 590.985 92.8373 589.745 91.68C588.505 90.5227 586.893 89.6133 584.909 88.952C583.008 88.208 580.817 87.588 578.337 87.092C575.857 86.596 573.336 86.0587 570.773 85.48C568.128 84.9013 565.565 84.1987 563.085 83.372C560.688 82.5453 558.497 81.4293 556.513 80.024C554.612 78.6187 553.083 76.8413 551.925 74.692C550.768 72.46 550.189 69.732 550.189 66.508C550.189 63.036 551.016 60.1427 552.669 57.828C554.405 55.4307 556.555 53.5293 559.117 52.124C561.763 50.636 564.656 49.6027 567.797 49.024C571.021 48.4453 574.08 48.156 576.973 48.156C580.28 48.156 583.421 48.528 586.397 49.272C589.456 49.9333 592.184 51.0493 594.581 52.62C597.061 54.1907 599.087 56.2573 600.657 58.82C602.311 61.3 603.344 64.3173 603.757 67.872H589.001C588.34 64.4827 586.769 62.2093 584.289 61.052C581.892 59.8947 579.123 59.316 575.981 59.316C574.989 59.316 573.791 59.3987 572.385 59.564C571.063 59.7293 569.781 60.06 568.541 60.556C567.384 60.9693 566.392 61.6307 565.565 62.54C564.739 63.3667 564.325 64.4827 564.325 65.888C564.325 67.624 564.904 69.0293 566.061 70.104C567.301 71.1787 568.872 72.088 570.773 72.832C572.757 73.4933 574.989 74.072 577.469 74.568C579.949 75.064 582.512 75.6013 585.157 76.18C587.72 76.7587 590.241 77.4613 592.721 78.288C595.201 79.1147 597.392 80.2307 599.293 81.636C601.277 83.0413 602.848 84.8187 604.005 86.968C605.245 89.1173 605.865 91.7627 605.865 94.904C605.865 98.7067 604.997 101.931 603.261 104.576C601.525 107.221 599.252 109.371 596.441 111.024C593.713 112.677 590.655 113.876 587.265 114.62C583.876 115.364 580.528 115.736 577.221 115.736C573.171 115.736 569.409 115.281 565.937 114.372C562.548 113.463 559.572 112.099 557.009 110.28C554.529 108.379 552.545 106.064 551.057 103.336C549.652 100.525 548.908 97.2187 548.825 93.416H562.961ZM665.33 99.74C665.33 101.476 665.537 102.716 665.95 103.46C666.446 104.204 667.355 104.576 668.678 104.576C669.091 104.576 669.587 104.576 670.166 104.576C670.745 104.576 671.406 104.493 672.15 104.328V114.124C671.654 114.289 670.993 114.455 670.166 114.62C669.422 114.868 668.637 115.075 667.81 115.24C666.983 115.405 666.157 115.529 665.33 115.612C664.503 115.695 663.801 115.736 663.222 115.736C660.329 115.736 657.931 115.157 656.03 114C654.129 112.843 652.889 110.817 652.31 107.924C649.499 110.652 646.027 112.636 641.894 113.876C637.843 115.116 633.917 115.736 630.114 115.736C627.221 115.736 624.451 115.323 621.806 114.496C619.161 113.752 616.805 112.636 614.738 111.148C612.754 109.577 611.142 107.635 609.902 105.32C608.745 102.923 608.166 100.153 608.166 97.012C608.166 93.044 608.869 89.82 610.274 87.34C611.762 84.86 613.663 82.9173 615.978 81.512C618.375 80.1067 621.021 79.1147 623.914 78.536C626.89 77.8747 629.866 77.3787 632.842 77.048C635.405 76.552 637.843 76.2213 640.158 76.056C642.473 75.808 644.498 75.436 646.234 74.94C648.053 74.444 649.458 73.7 650.45 72.708C651.525 71.6333 652.062 70.0627 652.062 67.996C652.062 66.1773 651.607 64.6893 650.698 63.532C649.871 62.3747 648.797 61.5067 647.474 60.928C646.234 60.2667 644.829 59.8533 643.258 59.688C641.687 59.44 640.199 59.316 638.794 59.316C634.826 59.316 631.561 60.1427 628.998 61.796C626.435 63.4493 624.989 66.012 624.658 69.484H610.522C610.77 65.3507 611.762 61.92 613.498 59.192C615.234 56.464 617.425 54.2733 620.07 52.62C622.798 50.9667 625.857 49.8093 629.246 49.148C632.635 48.4867 636.107 48.156 639.662 48.156C642.803 48.156 645.903 48.4867 648.962 49.148C652.021 49.8093 654.749 50.884 657.146 52.372C659.626 53.86 661.61 55.8027 663.098 58.2C664.586 60.5147 665.33 63.3667 665.33 66.756V99.74ZM651.194 81.884C649.045 83.2893 646.399 84.1573 643.258 84.488C640.117 84.736 636.975 85.1493 633.834 85.728C632.346 85.976 630.899 86.348 629.494 86.844C628.089 87.2573 626.849 87.8773 625.774 88.704C624.699 89.448 623.831 90.4813 623.17 91.804C622.591 93.044 622.302 94.5733 622.302 96.392C622.302 97.9627 622.757 99.2853 623.666 100.36C624.575 101.435 625.65 102.303 626.89 102.964C628.213 103.543 629.618 103.956 631.106 104.204C632.677 104.452 634.082 104.576 635.322 104.576C636.893 104.576 638.587 104.369 640.406 103.956C642.225 103.543 643.919 102.84 645.49 101.848C647.143 100.856 648.507 99.616 649.582 98.128C650.657 96.5573 651.194 94.656 651.194 92.424V81.884ZM669.256 49.892H679.796V44.56C679.796 40.5093 680.292 37.244 681.284 34.764C682.276 32.2013 683.599 30.2587 685.252 28.936C686.906 27.5307 688.766 26.6213 690.832 26.208C692.982 25.712 695.214 25.464 697.528 25.464C702.075 25.464 705.382 25.7533 707.448 26.332V37.368C706.539 37.12 705.547 36.9547 704.472 36.872C703.48 36.7067 702.282 36.624 700.876 36.624C698.975 36.624 697.322 37.0787 695.916 37.988C694.594 38.8973 693.932 40.6747 693.932 43.32V49.892H705.96V60.432H693.932V114H679.796V60.432H669.256V49.892ZM753.754 76.304C753.588 74.072 753.092 71.9227 752.266 69.856C751.522 67.7893 750.447 66.012 749.042 64.524C747.719 62.9533 746.066 61.7133 744.082 60.804C742.18 59.812 740.031 59.316 737.634 59.316C735.154 59.316 732.88 59.7707 730.814 60.68C728.83 61.5067 727.094 62.7053 725.606 64.276C724.2 65.764 723.043 67.5413 722.134 69.608C721.307 71.6747 720.852 73.9067 720.77 76.304H753.754ZM720.77 85.604C720.77 88.084 721.1 90.4813 721.762 92.796C722.506 95.1107 723.58 97.136 724.986 98.872C726.391 100.608 728.168 102.013 730.318 103.088C732.467 104.08 735.03 104.576 738.006 104.576C742.139 104.576 745.446 103.708 747.926 101.972C750.488 100.153 752.39 97.4667 753.63 93.912H767.022C766.278 97.384 764.996 100.484 763.178 103.212C761.359 105.94 759.168 108.255 756.606 110.156C754.043 111.975 751.15 113.339 747.926 114.248C744.784 115.24 741.478 115.736 738.006 115.736C732.963 115.736 728.499 114.909 724.614 113.256C720.728 111.603 717.422 109.288 714.694 106.312C712.048 103.336 710.023 99.7813 708.618 95.648C707.295 91.5147 706.634 86.968 706.634 82.008C706.634 77.4613 707.336 73.1627 708.742 69.112C710.23 64.9787 712.296 61.3827 714.942 58.324C717.67 55.1827 720.935 52.7027 724.738 50.884C728.54 49.0653 732.839 48.156 737.634 48.156C742.676 48.156 747.182 49.2307 751.15 51.38C755.2 53.4467 758.548 56.216 761.194 59.688C763.839 63.16 765.74 67.1693 766.898 71.716C768.138 76.18 768.468 80.8093 767.89 85.604H720.77Z" fill="#E4E6ED"/>
<path fill-rule="evenodd" clip-rule="evenodd" d="M101.462 20.4688C103.63 18.035 106.672 19.5479 107.234 22.7587C107.419 23.8153 107.621 24.9859 107.834 26.2473C100.77 33.3747 97.3051 39.0783 91.5458 48.5584L91.5458 48.5585L91.5457 48.5586L91.1189 49.2611C100.003 38.5438 105.057 32.8716 108.73 31.6722C110.031 39.7644 111.464 49.7035 112.079 57.5565C112.5 62.9412 112.977 69.602 113.41 75.8461C113.735 80.5331 112.465 83.3628 110.038 84.5803C108.801 88.565 107.055 92.3805 104.82 95.9166C98.5063 105.911 88.7705 112.921 77.5945 115.522C75.2716 116.062 72.9227 116.404 70.5695 116.55C68.7949 113.011 66.7817 107.9 64.179 101L64.346 101.761C65.6416 107.662 66.6405 112.212 68.0354 116.632C59.9097 116.655 51.8236 114.365 44.6624 109.914C34.6826 103.712 27.2494 93.7775 23.8755 82.1339C45.9278 85.6536 58.2239 85.8375 80.0598 83.5253C91.8049 82.2816 98.3898 78.7889 103.038 74.0509C105.844 64.611 106.865 54.703 103.783 54.2477C103.232 54.1663 102.401 54.2676 101.381 54.4845C97.0031 56.9739 93.2647 58.9684 89.8112 60.6244C91.9947 61.344 93.6324 62.6697 94.3233 64.5178C95.959 68.8929 91.6694 74.5392 84.7421 77.129C77.8148 79.7189 70.8732 78.2717 69.2375 73.8965C68.4847 71.8829 68.987 69.6001 70.4239 67.4699C63.0954 68.417 57.0111 69.0557 51.2237 69.4122C53.8919 72.9578 54.6735 76.8825 52.8576 79.5466C50.2268 83.4061 43.1402 83.1581 37.0293 78.9926C33.1543 76.3512 30.6022 72.769 29.9241 69.5171C27.6035 69.4143 25.1735 69.279 22.5899 69.1125C22.0668 57.6519 25.9304 46.4226 33.3945 37.71C40.8585 28.9975 51.3619 23.4565 62.7671 22.2148C73.9588 20.9963 85.1934 24.0076 94.2691 30.6426C96.6994 26.6425 99.1944 23.0137 101.462 20.4688ZM36.7752 69.7299C36.4375 70.0415 36.1555 70.4247 35.9546 70.87C35.1541 72.6439 35.9432 74.7309 37.7171 75.5315C39.491 76.332 41.5781 75.5429 42.3786 73.769C43.0145 72.3598 42.6473 70.753 41.5801 69.7505C40.0027 69.7636 38.4076 69.7565 36.7752 69.7299ZM73.0254 66.8778C71.8643 67.8064 71.3772 69.4105 71.9314 70.8763C72.6197 72.6967 74.6535 73.6145 76.4739 72.9262C78.2943 72.2379 79.2121 70.2042 78.5238 68.3837C78.0427 67.1115 76.9046 66.2802 75.6414 66.1298C74.7858 66.3856 73.9158 66.6341 73.0254 66.8778Z" fill="#E4E6ED"/>
</svg>
