<svg width="24" height="24" viewBox="0 0 24 24" fill="#FFF" xmlns="http://www.w3.org/2000/svg">
<path fill-rule="evenodd" clip-rule="evenodd" d="M17.1427 8.56989H19.7137C19.9408 8.57068 20.1583 8.66123 20.3189 8.82177C20.4794 8.98232 20.5699 9.19984 20.5707 9.42689V19.7129C20.5686 20.3941 20.2971 21.0468 19.8154 21.5285C19.3337 22.0102 18.681 22.2818 17.9997 22.2839H5.99973C5.31834 22.282 4.66536 22.0106 4.18345 21.5289C3.70153 21.0472 3.42985 20.3943 3.42773 19.7129V9.42689C3.42853 9.19967 3.51921 8.982 3.67997 8.82142C3.84074 8.66085 4.05851 8.57042 4.28573 8.56989H6.85673V6.85589C6.85673 4.02689 9.17073 1.71289 11.9997 1.71289C14.8287 1.71289 17.1427 4.02689 17.1427 6.85589V8.56989ZM11.9997 3.42689C11.0909 3.42927 10.22 3.79126 9.57733 4.43378C8.93463 5.0763 8.57237 5.9471 8.56973 6.85589V8.56989H15.4267V6.85589C15.4241 5.94762 15.0623 5.07727 14.4202 4.43484C13.7781 3.7924 12.908 3.43006 11.9997 3.42689ZM17.9997 20.5699C18.2268 20.5691 18.4443 20.4786 18.6049 20.318C18.7654 20.1575 18.8559 19.9399 18.8567 19.7129V10.2839H5.14273V19.7129C5.14353 19.9399 5.23407 20.1575 5.39462 20.318C5.55517 20.4786 5.77269 20.5691 5.99973 20.5699H17.9997ZM11.1427 18.8539V16.0239C10.6277 15.7679 10.2847 15.2109 10.2847 14.5679C10.2863 14.1136 10.4675 13.6784 10.7889 13.3573C11.1102 13.0362 11.5455 12.8552 11.9997 12.8539C12.4538 12.8555 12.8889 13.0366 13.21 13.3577C13.5311 13.6788 13.7122 14.1138 13.7137 14.5679C13.7137 15.1679 13.3707 15.7249 12.8567 16.0249V18.8539H11.1427Z" fill="black"/>
</svg>
