<svg width="280" height="280" viewBox="0 0 280 280" fill="none" xmlns="http://www.w3.org/2000/svg">
<path fill-rule="evenodd" clip-rule="evenodd" d="M208.89 42.1386C213.353 37.1279 219.618 40.2427 220.774 46.8531C221.154 49.029 221.57 51.4397 222.01 54.0373C207.466 68.7116 200.332 80.4545 188.475 99.9727L187.596 101.419C205.886 79.3538 216.292 67.6756 223.855 65.2064C226.534 81.8664 229.483 102.328 230.748 118.496C231.615 129.582 232.598 143.295 233.489 156.151C234.159 165.801 231.543 171.628 226.544 174.134C223.998 182.337 220.403 190.193 215.803 197.473C202.804 218.049 182.759 232.482 159.75 237.836C154.968 238.949 150.132 239.652 145.288 239.953C141.634 232.667 137.49 222.146 132.132 207.941L132.476 209.507C135.143 221.656 137.2 231.022 140.071 240.122C123.341 240.169 106.693 235.455 91.9485 226.292C71.4019 213.521 56.0982 193.069 49.152 169.097C94.5537 176.343 119.869 176.722 164.826 171.961C189.008 169.401 202.566 162.209 212.136 152.453C217.912 133.019 220.015 112.621 213.668 111.683C212.534 111.516 210.824 111.724 208.724 112.171C199.709 117.297 192.011 121.404 184.9 124.814C189.397 126.295 192.771 129.025 194.194 132.831C197.561 141.838 188.73 153.463 174.468 158.795C160.206 164.127 145.914 161.147 142.546 152.14C140.996 147.993 142.031 143.292 144.991 138.905C129.901 140.856 117.374 142.171 105.458 142.905C110.953 150.205 112.563 158.287 108.824 163.773C103.407 171.719 88.8175 171.208 76.2362 162.632C68.257 157.193 63.0021 149.816 61.607 143.121C56.8293 142.909 51.8262 142.63 46.5068 142.288C45.4298 118.692 53.3844 95.573 68.7515 77.6354C84.1186 59.6978 105.743 48.2899 129.225 45.7334C152.266 43.2248 175.396 49.4244 194.081 63.0846C199.085 54.8492 204.222 47.3781 208.89 42.1386ZM75.7177 143.559C75.021 144.201 74.4394 144.991 74.0251 145.909C72.3769 149.561 74.0016 153.858 77.6538 155.506C81.306 157.154 85.6028 155.53 87.2509 151.877C88.5609 148.975 87.8035 145.665 85.6039 143.601C82.3583 143.628 79.0763 143.614 75.7177 143.559ZM150.348 137.686C147.954 139.597 146.95 142.902 148.091 145.922C149.509 149.669 153.696 151.559 157.444 150.142C161.192 148.725 163.081 144.538 161.664 140.79C160.673 138.169 158.327 136.456 155.724 136.149C153.966 136.674 152.178 137.185 150.348 137.686Z" fill="#E4E6ED"/>
</svg>
