<svg width="246" height="48" viewBox="0 0 246 48" fill="none" xmlns="http://www.w3.org/2000/svg">
<path d="M68.1974 20.6719L66.1136 21.2599C65.9091 20.6719 65.6193 20.1392 65.2443 19.6619C64.8693 19.1847 64.3793 18.8054 63.7741 18.5241C63.1776 18.2429 62.4361 18.1023 61.5497 18.1023C60.2202 18.1023 59.1293 18.4176 58.277 19.0483C57.4247 19.679 56.9986 20.4929 56.9986 21.4901C56.9986 22.3338 57.2884 23.0199 57.8679 23.5483C58.456 24.0682 59.3594 24.4815 60.5781 24.7884L63.544 25.517C65.1889 25.9176 66.4205 26.5526 67.2386 27.4219C68.0653 28.2912 68.4787 29.3821 68.4787 30.6946C68.4787 31.8026 68.1719 32.7869 67.5582 33.6477C66.9446 34.5085 66.0881 35.1861 64.9886 35.6804C63.8977 36.1662 62.6321 36.4091 61.1918 36.4091C59.2741 36.4091 57.6932 35.9787 56.4489 35.1179C55.2045 34.2486 54.4077 32.9957 54.0582 31.3594L56.2443 30.8224C56.5256 31.9901 57.0753 32.8722 57.8935 33.4688C58.7202 34.0653 59.8068 34.3636 61.1534 34.3636C62.6619 34.3636 63.8679 34.027 64.7713 33.3537C65.6747 32.6719 66.1264 31.8196 66.1264 30.7969C66.1264 30.0043 65.8622 29.3395 65.3338 28.8026C64.8054 28.2571 64.0043 27.8565 62.9304 27.6009L59.7216 26.8338C58.017 26.4247 56.7557 25.777 55.9375 24.8906C55.1193 24.0043 54.7102 22.9048 54.7102 21.5923C54.7102 20.5099 55.0043 19.5597 55.5923 18.7415C56.1804 17.9148 56.9901 17.267 58.0213 16.7983C59.0526 16.3295 60.2287 16.0952 61.5497 16.0952C63.348 16.0952 64.7841 16.5043 65.858 17.3224C66.9403 18.1321 67.7202 19.2486 68.1974 20.6719ZM74.2969 23.7273V36H72.0213V9.81818H74.2969V19.4446H74.5014C74.9616 18.4304 75.6733 17.6207 76.6363 17.0156C77.6079 16.4105 78.8352 16.108 80.3182 16.108C81.6477 16.108 82.8153 16.3807 83.821 16.9261C84.8267 17.4716 85.6108 18.277 86.1733 19.3423C86.7358 20.4077 87.017 21.7202 87.017 23.2798V36H84.7287V23.4205C84.7287 21.8011 84.277 20.527 83.3736 19.598C82.4787 18.6605 81.2685 18.1918 79.7429 18.1918C78.6946 18.1918 77.7613 18.4134 76.9432 18.8565C76.125 19.2997 75.4773 19.9389 75 20.7741C74.5312 21.6009 74.2969 22.5852 74.2969 23.7273ZM97.0539 36.4474C95.8693 36.4474 94.7869 36.2173 93.8068 35.7571C92.8267 35.2884 92.0468 34.6151 91.4673 33.7372C90.8878 32.8509 90.598 31.777 90.598 30.5156C90.598 29.544 90.7812 28.7259 91.1477 28.0611C91.5142 27.3963 92.0341 26.8509 92.7074 26.4247C93.3807 25.9986 94.1775 25.6619 95.098 25.4148C96.0184 25.1676 97.0326 24.9759 98.1406 24.8395C99.24 24.7031 100.169 24.5838 100.928 24.4815C101.695 24.3793 102.278 24.2173 102.679 23.9957C103.08 23.7741 103.28 23.4162 103.28 22.9219V22.4616C103.28 21.1236 102.879 20.071 102.078 19.304C101.285 18.5284 100.143 18.1406 98.652 18.1406C97.2372 18.1406 96.0824 18.4517 95.1875 19.0739C94.3011 19.696 93.6789 20.429 93.321 21.2727L91.1605 20.4929C91.6037 19.419 92.2173 18.5625 93.0014 17.9233C93.7855 17.2756 94.6633 16.8111 95.6349 16.5298C96.6065 16.2401 97.5909 16.0952 98.588 16.0952C99.338 16.0952 100.118 16.1932 100.928 16.3892C101.746 16.5852 102.504 16.9261 103.203 17.4119C103.902 17.8892 104.469 18.5582 104.903 19.419C105.338 20.2713 105.555 21.3537 105.555 22.6662V36H103.28V32.8935H103.139C102.866 33.473 102.462 34.0355 101.925 34.581C101.388 35.1264 100.714 35.5739 99.9048 35.9233C99.0951 36.2727 98.1449 36.4474 97.0539 36.4474ZM97.3608 34.3636C98.571 34.3636 99.6193 34.0952 100.506 33.5582C101.392 33.0213 102.074 32.3097 102.551 31.4233C103.037 30.5284 103.28 29.544 103.28 28.4702V25.6321C103.109 25.794 102.824 25.9389 102.423 26.0668C102.031 26.1946 101.575 26.3097 101.055 26.4119C100.544 26.5057 100.033 26.5866 99.5213 26.6548C99.0099 26.723 98.5497 26.7827 98.1406 26.8338C97.0326 26.9702 96.0866 27.1832 95.3025 27.473C94.5184 27.7628 93.9176 28.1634 93.5 28.6747C93.0824 29.1776 92.8736 29.8253 92.8736 30.6179C92.8736 31.8111 93.2997 32.7358 94.152 33.392C95.0042 34.0398 96.0738 34.3636 97.3608 34.3636ZM117.238 36.4091C115.627 36.4091 114.217 35.983 113.007 35.1307C111.796 34.2784 110.85 33.0895 110.169 31.5639C109.495 30.0384 109.159 28.2614 109.159 26.233C109.159 24.2131 109.495 22.4446 110.169 20.9276C110.85 19.402 111.801 18.2173 113.019 17.3736C114.238 16.5213 115.657 16.0952 117.277 16.0952C118.47 16.0952 119.463 16.3082 120.255 16.7344C121.048 17.152 121.683 17.6719 122.16 18.294C122.637 18.9162 123.008 19.5213 123.272 20.1094H123.477V9.81818H125.765V36H123.541V32.3565H123.272C123.008 32.9531 122.633 33.5668 122.147 34.1974C121.662 34.8196 121.018 35.3437 120.217 35.7699C119.424 36.196 118.431 36.4091 117.238 36.4091ZM117.507 34.3253C118.777 34.3253 119.859 33.9801 120.754 33.2898C121.649 32.5909 122.331 31.6321 122.799 30.4134C123.277 29.1861 123.515 27.7798 123.515 26.1946C123.515 24.6264 123.281 23.2415 122.812 22.0398C122.343 20.8295 121.662 19.8835 120.767 19.2017C119.872 18.5114 118.785 18.1662 117.507 18.1662C116.194 18.1662 115.086 18.5241 114.183 19.2401C113.288 19.9474 112.606 20.9062 112.137 22.1165C111.677 23.3267 111.447 24.6861 111.447 26.1946C111.447 27.7202 111.681 29.0966 112.15 30.3239C112.619 31.5511 113.301 32.527 114.196 33.2514C115.099 33.9673 116.203 34.3253 117.507 34.3253ZM138.439 36.4091C136.743 36.4091 135.243 35.9787 133.939 35.1179C132.643 34.2571 131.629 33.0682 130.896 31.5511C130.163 30.0256 129.797 28.2656 129.797 26.2713C129.797 24.2599 130.163 22.4915 130.896 20.9659C131.629 19.4318 132.643 18.2386 133.939 17.3864C135.243 16.5256 136.743 16.0952 138.439 16.0952C140.135 16.0952 141.631 16.5256 142.926 17.3864C144.222 18.2472 145.236 19.4403 145.969 20.9659C146.71 22.4915 147.081 24.2599 147.081 26.2713C147.081 28.2656 146.714 30.0256 145.981 31.5511C145.249 33.0682 144.23 34.2571 142.926 35.1179C141.631 35.9787 140.135 36.4091 138.439 36.4091ZM138.439 34.3253C139.802 34.3253 140.957 33.9588 141.903 33.2259C142.849 32.4929 143.565 31.517 144.051 30.2983C144.545 29.0795 144.793 27.7372 144.793 26.2713C144.793 24.8054 144.545 23.4588 144.051 22.2315C143.565 21.0043 142.849 20.0199 141.903 19.2784C140.957 18.5369 139.802 18.1662 138.439 18.1662C137.084 18.1662 135.929 18.5369 134.974 19.2784C134.028 20.0199 133.308 21.0043 132.814 22.2315C132.328 23.4588 132.085 24.8054 132.085 26.2713C132.085 27.7372 132.328 29.0795 132.814 30.2983C133.308 31.517 134.028 32.4929 134.974 33.2259C135.92 33.9588 137.075 34.3253 138.439 34.3253ZM154.328 36L148.396 16.3636H150.799L155.453 32.5611H155.619L160.26 16.3636H162.676L167.278 32.5227H167.457L172.11 16.3636H174.514L168.582 36H166.23L161.576 19.9048H161.333L156.68 36H154.328ZM193.004 21.9631L188.018 22.2699C187.933 21.8437 187.75 21.4602 187.469 21.1193C187.187 20.7699 186.817 20.4929 186.356 20.2884C185.905 20.0753 185.364 19.9688 184.733 19.9688C183.889 19.9688 183.177 20.1477 182.598 20.5057C182.018 20.8551 181.729 21.3239 181.729 21.9119C181.729 22.3807 181.916 22.777 182.291 23.1009C182.666 23.4247 183.31 23.6847 184.222 23.8807L187.775 24.5966C189.685 24.9886 191.108 25.6193 192.045 26.4886C192.983 27.358 193.452 28.5 193.452 29.9148C193.452 31.2017 193.072 32.331 192.314 33.3026C191.564 34.2741 190.533 35.0327 189.22 35.5781C187.916 36.1151 186.412 36.3835 184.707 36.3835C182.108 36.3835 180.037 35.8423 178.494 34.7599C176.96 33.669 176.061 32.1861 175.797 30.3111L181.153 30.0298C181.315 30.8224 181.707 31.4276 182.329 31.8452C182.952 32.2543 183.748 32.4588 184.72 32.4588C185.675 32.4588 186.442 32.2756 187.021 31.9091C187.609 31.5341 187.908 31.0526 187.916 30.4645C187.908 29.9702 187.699 29.5653 187.29 29.25C186.881 28.9261 186.25 28.679 185.398 28.5085L181.997 27.831C180.079 27.4474 178.652 26.7827 177.714 25.8366C176.785 24.8906 176.321 23.6847 176.321 22.2188C176.321 20.9574 176.662 19.8707 177.344 18.9588C178.034 18.0469 179.001 17.3438 180.246 16.8494C181.498 16.3551 182.964 16.108 184.643 16.108C187.123 16.108 189.075 16.6321 190.498 17.6804C191.93 18.7287 192.766 20.1562 193.004 21.9631ZM201.04 36.3707C199.788 36.3707 198.671 36.1534 197.691 35.7188C196.711 35.2756 195.935 34.6236 195.364 33.7628C194.802 32.8935 194.52 31.8111 194.52 30.5156C194.52 29.4247 194.721 28.5085 195.121 27.767C195.522 27.0256 196.067 26.429 196.758 25.9773C197.448 25.5256 198.232 25.1847 199.11 24.9545C199.996 24.7244 200.925 24.5625 201.897 24.4688C203.039 24.3494 203.959 24.2386 204.658 24.1364C205.357 24.0256 205.864 23.8636 206.18 23.6506C206.495 23.4375 206.653 23.1222 206.653 22.7045V22.6278C206.653 21.8182 206.397 21.1918 205.886 20.7486C205.383 20.3054 204.667 20.0838 203.738 20.0838C202.758 20.0838 201.978 20.3011 201.398 20.7358C200.819 21.1619 200.435 21.6989 200.248 22.3466L195.211 21.9375C195.467 20.7443 195.969 19.7131 196.719 18.8438C197.469 17.9659 198.437 17.2926 199.621 16.8239C200.815 16.3466 202.195 16.108 203.763 16.108C204.854 16.108 205.898 16.2358 206.895 16.4915C207.901 16.7472 208.792 17.1435 209.567 17.6804C210.351 18.2173 210.969 18.9077 211.421 19.7514C211.873 20.5866 212.099 21.5881 212.099 22.7557V36H206.934V33.277H206.78C206.465 33.8906 206.043 34.4318 205.515 34.9006C204.986 35.3608 204.351 35.723 203.61 35.9872C202.869 36.2429 202.012 36.3707 201.04 36.3707ZM202.6 32.6122C203.401 32.6122 204.109 32.4545 204.722 32.1392C205.336 31.8153 205.817 31.3807 206.167 30.8352C206.516 30.2898 206.691 29.6719 206.691 28.9815V26.8977C206.52 27.0085 206.286 27.1108 205.988 27.2045C205.698 27.2898 205.37 27.3707 205.003 27.4474C204.637 27.5156 204.27 27.5795 203.904 27.6392C203.538 27.6903 203.205 27.7372 202.907 27.7798C202.268 27.8736 201.709 28.0227 201.232 28.2273C200.755 28.4318 200.384 28.7088 200.12 29.0582C199.856 29.3991 199.724 29.8253 199.724 30.3366C199.724 31.0781 199.992 31.6449 200.529 32.0369C201.074 32.4205 201.765 32.6122 202.6 32.6122ZM225.443 16.3636V20.4545H213.324V16.3636H225.443ZM216.098 36V14.9446C216.098 13.5213 216.375 12.3409 216.929 11.4034C217.492 10.4659 218.259 9.76278 219.23 9.29403C220.202 8.82528 221.306 8.59091 222.541 8.59091C223.377 8.59091 224.139 8.65483 224.83 8.78267C225.529 8.91051 226.049 9.02557 226.389 9.12784L225.418 13.2188C225.205 13.1506 224.941 13.0866 224.625 13.027C224.318 12.9673 224.003 12.9375 223.679 12.9375C222.878 12.9375 222.32 13.125 222.004 13.5C221.689 13.8665 221.531 14.3821 221.531 15.0469V36H216.098ZM235.576 36.3835C233.556 36.3835 231.818 35.9744 230.36 35.1562C228.911 34.3295 227.795 33.1619 227.011 31.6534C226.227 30.1364 225.835 28.3423 225.835 26.2713C225.835 24.2514 226.227 22.4787 227.011 20.9531C227.795 19.4276 228.899 18.2386 230.322 17.3864C231.754 16.5341 233.433 16.108 235.359 16.108C236.654 16.108 237.86 16.3168 238.977 16.7344C240.102 17.1435 241.082 17.7614 241.917 18.5881C242.761 19.4148 243.417 20.4545 243.886 21.7074C244.355 22.9517 244.589 24.4091 244.589 26.0795V27.5753H228.008V24.2003H239.463C239.463 23.4162 239.292 22.7216 238.951 22.1165C238.61 21.5114 238.137 21.0384 237.532 20.6974C236.936 20.348 236.241 20.1733 235.448 20.1733C234.622 20.1733 233.889 20.3651 233.25 20.7486C232.619 21.1236 232.125 21.6307 231.767 22.2699C231.409 22.9006 231.225 23.6037 231.217 24.3793V27.5881C231.217 28.5597 231.396 29.3991 231.754 30.1065C232.12 30.8139 232.636 31.3594 233.301 31.7429C233.965 32.1264 234.754 32.3182 235.666 32.3182C236.271 32.3182 236.825 32.233 237.328 32.0625C237.83 31.892 238.261 31.6364 238.619 31.2955C238.977 30.9545 239.25 30.5369 239.437 30.0426L244.474 30.375C244.218 31.5852 243.694 32.642 242.901 33.5455C242.117 34.4403 241.103 35.1392 239.859 35.642C238.623 36.1364 237.196 36.3835 235.576 36.3835Z" fill="#E4E6ED"/>
<path fill-rule="evenodd" clip-rule="evenodd" d="M35.8087 7.2241C36.5739 6.36512 37.6478 6.89908 37.8459 8.03229C37.895 8.31286 37.9475 8.6162 38.0027 8.93882C35.539 11.6874 34.4253 13.7836 32.544 17.3244L32.4079 17.5806C35.3883 13.532 37.0631 11.426 38.3444 10.9935C38.8113 13.8819 39.3343 17.4822 39.5558 20.3139C39.7045 22.2144 39.8729 24.5652 40.0258 26.7691C40.1405 28.4227 39.6925 29.4213 38.8364 29.8513C38.3998 31.2578 37.7835 32.6046 36.9949 33.8527C34.7664 37.38 31.3302 39.8543 27.3857 40.7722C26.691 40.9338 25.9898 41.045 25.2866 41.1066C24.8361 40.0442 24.3327 38.7425 23.7438 37.1812L23.8027 37.4496C24.1114 38.8557 24.3724 40.0443 24.6608 41.1483C21.5763 41.2896 18.4807 40.4824 15.7626 38.7931C12.2404 36.6039 9.61688 33.0977 8.42611 28.9882C16.2093 30.2305 20.5491 30.2954 28.2558 29.4793C32.4003 29.0405 34.7243 27.8082 36.3649 26.1365C37.3552 22.8044 37.716 19.3068 36.6279 19.1461C36.4339 19.1174 36.1416 19.1529 35.7827 19.2291C33.9647 20.2629 32.4592 21.055 31.0624 21.6951C32.1465 21.8728 32.9834 22.4018 33.2905 23.2231C33.8678 24.7673 32.3538 26.7601 29.9089 27.6742C27.464 28.5882 25.014 28.0774 24.4367 26.5333C24.1076 25.6531 24.458 24.6272 25.273 23.7383C25.2201 23.7522 25.1669 23.7661 25.1135 23.7799C22.2585 24.1526 19.9398 24.3953 17.7227 24.52C18.9432 25.8736 19.3704 27.4778 18.6549 28.5275C17.7263 29.8897 15.2252 29.8022 13.0684 28.332C11.5174 27.2748 10.5668 25.7905 10.5005 24.5335C9.69954 24.4975 8.86141 24.4507 7.97165 24.3933C7.78702 20.3484 9.15065 16.3851 11.785 13.3101C14.4194 10.2351 18.1265 8.27943 22.1518 7.84119C26.1017 7.41116 30.0667 8.47385 33.2698 10.8154C34.1276 9.4034 35.0084 8.12242 35.8087 7.2241ZM26.9913 26.1914C27.6338 25.9484 27.9577 25.2307 27.7148 24.5882C27.4719 23.9457 26.7541 23.6217 26.1116 23.8647C25.4691 24.1076 25.1452 24.8254 25.3881 25.4679C25.631 26.1104 26.3488 26.4343 26.9913 26.1914ZM13.3111 27.1113C13.9372 27.3939 14.6738 27.1154 14.9564 26.4893C15.2389 25.8632 14.9604 25.1266 14.3343 24.844C13.7082 24.5615 12.9716 24.84 12.6891 25.4661C12.4065 26.0922 12.685 26.8288 13.3111 27.1113Z" fill="#E4E6ED"/>
</svg>
