<svg width="248" height="48" viewBox="0 0 248 56" fill="none" xmlns="http://www.w3.org/2000/svg">
<path d="M30.7231 50C27.7897 50 25.216 49.3019 23.0019 47.9058C20.8019 46.5096 19.0814 44.5564 17.8404 42.0462C16.6135 39.5359 16 36.6026 16 33.2462C16 29.8615 16.6135 26.9071 17.8404 24.3827C19.0814 21.8583 20.8019 19.8981 23.0019 18.5019C25.216 17.1058 27.7897 16.4077 30.7231 16.4077C33.6564 16.4077 36.2231 17.1058 38.4231 18.5019C40.6372 19.8981 42.3577 21.8583 43.5846 24.3827C44.8256 26.9071 45.4462 29.8615 45.4462 33.2462C45.4462 36.6026 44.8256 39.5359 43.5846 42.0462C42.3577 44.5564 40.6372 46.5096 38.4231 47.9058C36.2231 49.3019 33.6564 50 30.7231 50ZM30.7231 45.5154C32.9513 45.5154 34.7846 44.9442 36.2231 43.8019C37.6615 42.6596 38.7263 41.1577 39.4173 39.2962C40.1083 37.4346 40.4538 35.4179 40.4538 33.2462C40.4538 31.0744 40.1083 29.0506 39.4173 27.175C38.7263 25.2994 37.6615 23.7833 36.2231 22.6269C34.7846 21.4705 32.9513 20.8923 30.7231 20.8923C28.4949 20.8923 26.6615 21.4705 25.2231 22.6269C23.7846 23.7833 22.7199 25.2994 22.0288 27.175C21.3378 29.0506 20.9923 31.0744 20.9923 33.2462C20.9923 35.4179 21.3378 37.4346 22.0288 39.2962C22.7199 41.1577 23.7846 42.6596 25.2231 43.8019C26.6615 44.9442 28.4949 45.5154 30.7231 45.5154Z" fill="white"/>
<path d="M76.0822 24.1077L71.5976 25.3769C71.3155 24.6295 70.8995 23.9032 70.3495 23.1981C69.8136 22.4788 69.0803 21.8865 68.1495 21.4212C67.2188 20.9558 66.0271 20.7231 64.5745 20.7231C62.5861 20.7231 60.929 21.1814 59.6034 22.0981C58.2918 23.0006 57.6361 24.15 57.6361 25.5462C57.6361 26.7872 58.0873 27.7673 58.9899 28.4865C59.8925 29.2058 61.3027 29.8051 63.2207 30.2846L68.0437 31.4692C70.9489 32.1744 73.1136 33.2532 74.538 34.7058C75.9623 36.1442 76.6745 37.9987 76.6745 40.2692C76.6745 42.1308 76.1386 43.7949 75.0668 45.2615C74.0091 46.7282 72.5284 47.8846 70.6245 48.7308C68.7207 49.5769 66.5066 50 63.9822 50C60.6681 50 57.9252 49.2808 55.7534 47.8423C53.5816 46.4038 52.2066 44.3026 51.6284 41.5385L56.3668 40.3538C56.8181 42.1026 57.6713 43.4141 58.9264 44.2885C60.1957 45.1628 61.8527 45.6 63.8976 45.6C66.2245 45.6 68.072 45.1064 69.4399 44.1192C70.822 43.1179 71.513 41.9192 71.513 40.5231C71.513 39.3949 71.1181 38.45 70.3284 37.6885C69.5386 36.9128 68.3258 36.3346 66.6899 35.9538L61.2745 34.6846C58.2989 33.9795 56.113 32.8865 54.7168 31.4058C53.3348 29.9109 52.6437 28.0423 52.6437 25.8C52.6437 23.9667 53.1585 22.3449 54.188 20.9346C55.2316 19.5244 56.6489 18.4173 58.4399 17.6135C60.245 16.8096 62.2899 16.4077 64.5745 16.4077C67.7899 16.4077 70.3143 17.1128 72.1476 18.5231C73.995 19.9333 75.3066 21.7949 76.0822 24.1077Z" fill="white"/>
<path d="M112.578 16.8308L101.007 49.3231H92.5452L80.974 16.8308H89.1394L96.6067 40.9673H96.9452L104.434 16.8308H112.578Z" fill="white"/>
<path d="M126.296 49.9788C124.237 49.9788 122.383 49.6122 120.733 48.8788C119.097 48.1314 117.799 47.0314 116.84 45.5788C115.896 44.1263 115.423 42.3353 115.423 40.2058C115.423 38.3724 115.762 36.8564 116.438 35.6577C117.115 34.459 118.039 33.5 119.21 32.7808C120.38 32.0615 121.699 31.5186 123.165 31.1519C124.646 30.7712 126.176 30.4962 127.756 30.3269C129.66 30.1295 131.204 29.9532 132.388 29.7981C133.573 29.6288 134.433 29.375 134.969 29.0365C135.519 28.684 135.794 28.141 135.794 27.4077V27.2808C135.794 25.6872 135.322 24.4532 134.377 23.5788C133.432 22.7045 132.071 22.2673 130.294 22.2673C128.419 22.2673 126.931 22.6763 125.831 23.4942C124.745 24.3122 124.012 25.2782 123.631 26.3923L116.481 25.3769C117.045 23.4026 117.976 21.7526 119.273 20.4269C120.571 19.0872 122.157 18.0859 124.033 17.4231C125.908 16.7462 127.981 16.4077 130.252 16.4077C131.817 16.4077 133.376 16.591 134.927 16.9577C136.478 17.3244 137.896 17.9308 139.179 18.7769C140.462 19.609 141.492 20.7442 142.267 22.1827C143.057 23.6212 143.452 25.4192 143.452 27.5769V49.3231H136.09V44.8596H135.837C135.371 45.7622 134.715 46.6083 133.869 47.3981C133.037 48.1737 131.987 48.8013 130.717 49.2808C129.462 49.7462 127.988 49.9788 126.296 49.9788ZM128.285 44.3519C129.822 44.3519 131.154 44.0487 132.283 43.4423C133.411 42.8218 134.278 42.0038 134.885 40.9885C135.505 39.9731 135.815 38.866 135.815 37.6673V33.8385C135.576 34.0359 135.167 34.2192 134.588 34.3885C134.024 34.5577 133.39 34.7058 132.685 34.8327C131.979 34.9596 131.281 35.0724 130.59 35.1712C129.899 35.2699 129.3 35.3545 128.792 35.425C127.65 35.5801 126.628 35.834 125.725 36.1865C124.822 36.5391 124.11 37.0327 123.588 37.6673C123.067 38.2878 122.806 39.0917 122.806 40.0788C122.806 41.4891 123.321 42.5538 124.35 43.2731C125.379 43.9923 126.691 44.3519 128.285 44.3519Z" fill="white"/>
<path d="M171.862 35.6577V16.8308H179.519V49.3231H172.094V43.5481H171.756C171.022 45.3673 169.817 46.8551 168.138 48.0115C166.474 49.1679 164.422 49.7462 161.983 49.7462C159.853 49.7462 157.971 49.2737 156.335 48.3288C154.713 47.3699 153.444 45.9808 152.527 44.1615C151.61 42.3282 151.152 40.1141 151.152 37.5192V16.8308H158.81V36.3346C158.81 38.3936 159.374 40.0295 160.502 41.2423C161.63 42.4551 163.111 43.0615 164.944 43.0615C166.072 43.0615 167.165 42.7865 168.223 42.2365C169.281 41.6865 170.148 40.8686 170.825 39.7827C171.516 38.6827 171.862 37.3077 171.862 35.6577Z" fill="white"/>
<path d="M195.051 6V49.3231H187.394V6H195.051Z" fill="white"/>
<path d="M214.984 49.8942C212.431 49.8942 210.146 49.2385 208.13 47.9269C206.113 46.6154 204.52 44.7115 203.349 42.2154C202.179 39.7192 201.593 36.6872 201.593 33.1192C201.593 29.509 202.186 26.4628 203.37 23.9808C204.569 21.4846 206.184 19.6019 208.214 18.3327C210.245 17.0494 212.509 16.4077 215.005 16.4077C216.909 16.4077 218.474 16.7321 219.701 17.3808C220.928 18.0154 221.901 18.784 222.62 19.6865C223.339 20.575 223.896 21.4141 224.291 22.2038H224.609V6H232.287V49.3231H224.757V44.2038H224.291C223.896 44.9936 223.325 45.8327 222.578 46.7212C221.83 47.5955 220.843 48.3429 219.616 48.9635C218.389 49.584 216.845 49.8942 214.984 49.8942ZM217.12 43.6115C218.742 43.6115 220.124 43.1744 221.266 42.3C222.409 41.4115 223.276 40.1776 223.868 38.5981C224.461 37.0186 224.757 35.1782 224.757 33.0769C224.757 30.9756 224.461 29.1494 223.868 27.5981C223.29 26.0468 222.43 24.841 221.287 23.9808C220.159 23.1205 218.77 22.6904 217.12 22.6904C215.414 22.6904 213.989 23.1346 212.847 24.0231C211.705 24.9115 210.845 26.1385 210.266 27.7038C209.688 29.2692 209.399 31.0603 209.399 33.0769C209.399 35.1077 209.688 36.9199 210.266 38.5135C210.859 40.0929 211.726 41.341 212.868 42.2577C214.025 43.1603 215.442 43.6115 217.12 43.6115Z" fill="white"/>
</svg>
