<svg width="24" height="24" viewBox="0 0 24 24" fill="none" xmlns="http://www.w3.org/2000/svg">
<path d="M17.186 12.3C17.8402 11.8228 18.3716 11.1971 18.7367 10.4744C19.1018 9.75173 19.2901 8.95267 19.286 8.143C19.286 5.314 16.97 3 14.143 3C13.2403 3.00194 12.3538 3.24031 11.5718 3.69139C10.7899 4.14247 10.1397 4.79051 9.68604 5.571C6.94304 5.657 4.71404 7.929 4.71404 10.714C4.71404 12.429 5.52904 13.929 6.81404 14.871C5.66678 15.4312 4.70053 16.3032 4.02598 17.3872C3.35143 18.4712 2.99587 19.7233 3.00004 21H4.71404C4.71404 18.986 5.91404 17.229 7.58604 16.371C8.22904 16.071 8.91404 15.857 9.68604 15.857H9.85704C12.686 15.857 15 18.171 15 21H16.714C16.714 18.3 15.171 15.986 12.9 14.871C13.468 14.4375 13.9479 13.8996 14.314 13.286C17.057 13.371 19.286 15.643 19.286 18.429H21C21 15.729 19.457 13.414 17.186 12.3ZM8.91404 14.014C7.50004 13.586 6.43004 12.3 6.43004 10.714C6.43004 9.086 7.54404 7.757 9.04404 7.371C9.30104 7.329 9.55804 7.286 9.85804 7.286C10.201 7.286 10.501 7.329 10.801 7.414C12.258 7.843 13.287 9.129 13.287 10.714C13.287 10.971 13.244 11.186 13.201 11.443C12.858 12.986 11.487 14.143 9.85804 14.143C9.51504 14.143 9.21504 14.1 8.91504 14.014H8.91404ZM14.957 11.486C15 11.229 15 10.971 15 10.714C15 8.486 13.586 6.6 11.571 5.871C11.891 5.50412 12.2865 5.21077 12.7304 5.01106C13.1744 4.81135 13.6563 4.71002 14.143 4.714C15.0515 4.7169 15.9219 5.07913 16.5641 5.7216C17.2064 6.36406 17.5684 7.23456 17.571 8.143C17.571 9.771 16.457 11.1 14.957 11.486Z" fill="white"/>
</svg>
